<?xml version="1.0" standalone="no"?>
<!DOCTYPE svg PUBLIC "-//W3C//DTD SVG 20010904//EN"
 "http://www.w3.org/TR/2001/REC-SVG-20010904/DTD/svg10.dtd">
<svg version="1.0" xmlns="http://www.w3.org/2000/svg"
 width="920.000000pt" height="700.000000pt" viewBox="0 0 920.000000 700.000000"
 preserveAspectRatio="xMidYMid meet">

<g transform="translate(0.000000,700.000000) scale(0.100000,-0.100000)"
fill="#000000" stroke="none">
<path d="M3566 6422 c-3 -6 -1 -14 5 -17 15 -10 25 3 12 16 -7 7 -13 7 -17 1z"/>
<path d="M3541 6259 c-15 -6 -21 -14 -17 -24 4 -11 -6 -20 -35 -31 -22 -9 -38
-19 -35 -21 3 -3 -2 -12 -10 -20 -8 -9 -14 -23 -12 -32 5 -23 39 -26 55 -5 7
10 16 14 20 10 4 -4 3 -10 -3 -14 -6 -4 -14 -20 -18 -35 -4 -15 -10 -26 -15
-23 -4 3 -19 -7 -32 -22 -13 -15 -20 -24 -15 -20 5 4 21 -1 36 -12 16 -11 35
-20 44 -20 9 0 16 -7 16 -15 0 -8 3 -15 8 -15 4 0 8 -18 9 -40 4 -88 6 -98 21
-93 10 4 13 0 10 -12 -2 -11 -16 -22 -36 -27 -19 -5 -32 -15 -32 -24 0 -13 8
-14 40 -9 50 8 53 -8 3 -21 -45 -11 -56 -32 -13 -26 39 6 38 -8 -1 -30 -22
-13 -30 -24 -27 -40 4 -27 28 -36 28 -10 0 10 8 26 18 35 29 26 35 20 12 -11
-19 -25 -20 -33 -9 -73 6 -24 12 -56 12 -71 1 -15 5 -24 9 -22 4 3 8 -5 8 -18
0 -16 3 -19 9 -10 4 7 6 35 3 61 -2 27 0 57 6 67 7 13 7 36 0 71 -7 33 -7 65
-1 90 l9 38 17 -31 c14 -26 15 -60 13 -220 -5 -238 -3 -218 -20 -202 -15 14
-16 29 -2 39 4 4 2 17 -5 30 -7 13 -12 28 -11 32 1 5 -5 7 -15 5 -15 -3 -18
-13 -17 -56 1 -29 -2 -52 -7 -52 -10 0 -7 -60 4 -77 5 -7 17 -13 27 -13 10 0
23 -7 28 -16 6 -11 11 -13 16 -5 12 18 32 12 33 -10 1 -12 7 -27 13 -33 8 -8
10 -4 5 15 -4 17 -1 30 10 39 21 17 32 5 14 -16 -13 -16 -12 -16 9 -3 22 14
22 14 4 29 -15 13 -18 27 -16 75 5 115 3 216 -6 235 -1 3 -1 25 0 49 1 37 -1
43 -12 33 -12 -9 -13 -1 -11 53 1 35 -2 67 -7 70 -6 4 -10 17 -10 31 0 14 -6
24 -15 24 -8 0 -19 9 -25 19 -18 34 -11 42 18 24 l27 -16 -21 22 c-20 21 -44
28 -74 20 -9 -3 -14 3 -14 14 1 9 -2 17 -8 17 -5 0 -6 5 -2 11 5 8 9 8 14 -1
14 -22 32 -2 19 21 -14 28 -2 37 16 13 13 -18 14 -18 8 4 -7 28 7 28 41 1 26
-20 37 -14 14 9 -9 9 -9 12 0 12 7 0 12 7 12 15 0 9 -10 15 -26 15 -14 0 -23
4 -19 10 3 5 12 7 19 4 8 -3 23 7 35 22 11 15 21 22 21 17 0 -6 -7 -16 -15
-23 -22 -18 -3 -35 23 -21 11 6 28 8 37 4 14 -5 16 -2 10 17 -5 15 -4 20 4 16
6 -4 11 -3 11 1 0 5 -9 14 -20 21 -22 14 -17 37 6 28 10 -4 14 3 14 22 -1 26
-1 26 -15 8 -8 -11 -18 -16 -22 -12 -4 4 -1 11 6 15 25 16 2 47 -52 71 -28 13
-58 23 -64 21 -7 -1 -13 3 -13 9 0 5 3 9 8 9 4 -1 16 -1 27 1 l20 1 -20 9
c-26 11 -74 11 -104 -1z m-41 -76 c-1 -14 -30 -47 -36 -41 -3 3 3 16 13 27 19
23 23 25 23 14z m40 -69 c0 -8 -5 -12 -10 -9 -6 4 -8 11 -5 16 9 14 15 11 15
-7z m121 -57 c-10 -9 -11 -8 -5 6 3 10 9 15 12 12 3 -3 0 -11 -7 -18z m-131
-5 c0 -4 11 -20 25 -35 24 -26 25 -27 5 -27 -12 0 -20 7 -20 17 0 9 -7 25 -17
35 -9 11 -11 18 -5 18 7 0 12 -3 12 -8z m200 -7 c-7 -9 -15 -13 -17 -11 -7 7
7 26 19 26 6 0 6 -6 -2 -15z m-109 -758 c-1 -12 -15 -9 -19 4 -3 6 1 10 8 8 6
-3 11 -8 11 -12z"/>
<path d="M3435 6089 c-4 -6 -4 -13 -1 -16 8 -8 36 5 36 17 0 13 -27 13 -35 -1z"/>
<path d="M3498 5917 c-12 -13 -14 -25 -8 -53 16 -69 32 -60 28 17 -3 49 -4 52
-20 36z"/>
<path d="M3691 5734 c0 -11 3 -14 6 -6 3 7 2 16 -1 19 -3 4 -6 -2 -5 -13z"/>
<path d="M4176 5427 c3 -10 9 -15 12 -12 3 3 0 11 -7 18 -10 9 -11 8 -5 -6z"/>
<path d="M4214 5344 c3 -9 6 -18 6 -20 0 -2 9 -4 20 -4 23 0 26 10 8 28 -18
18 -41 15 -34 -4z"/>
<path d="M4454 5328 c-12 -14 -13 -18 -3 -10 9 6 19 9 22 5 4 -3 7 1 7 10 0
22 -3 21 -26 -5z"/>
<path d="M4414 5295 c-8 -20 -6 -22 29 -30 34 -9 35 7 2 29 -23 15 -26 15 -31
1z"/>
<path d="M3760 5279 c0 -11 4 -18 10 -14 5 3 7 12 3 20 -7 21 -13 19 -13 -6z"/>
<path d="M4216 5234 c2 -75 -13 -75 -18 0 -2 29 -8 51 -16 54 -9 3 -11 -10 -6
-55 4 -32 10 -62 15 -67 15 -16 11 -23 -41 -78 -40 -41 -51 -60 -49 -83 2 -50
0 -55 -27 -55 -14 0 -23 -4 -20 -9 3 -5 15 -7 25 -4 19 5 54 -22 63 -47 5 -17
44 -4 52 17 13 33 -36 57 -62 31 -9 -9 -12 -7 -12 13 1 33 36 109 51 109 7 0
21 8 31 17 18 16 21 16 54 -2 18 -10 34 -22 34 -27 0 -4 6 -8 14 -8 19 0 76
-33 76 -44 0 -5 -7 -3 -15 4 -13 11 -14 10 -9 -4 4 -10 13 -15 21 -12 8 3 26
-6 40 -20 l26 -26 -44 7 c-24 4 -52 11 -61 16 -27 15 -74 10 -91 -8 -24 -27
-30 -104 -9 -119 13 -10 9 -13 -27 -19 -42 -7 -42 -7 -24 -27 12 -14 14 -22 7
-25 -7 -2 -10 -13 -7 -23 4 -13 0 -20 -9 -20 -8 0 -31 33 -51 73 -45 88 -69
117 -95 117 -11 0 -29 11 -40 25 -11 14 -25 25 -31 25 -6 0 -11 4 -11 9 0 5
-9 7 -19 4 -13 -3 -29 -28 -46 -71 -39 -97 -40 -100 -6 -62 17 19 31 29 31 23
0 -7 -4 -14 -9 -17 -12 -8 -52 -76 -44 -76 3 0 33 28 66 63 67 71 62 47 -7
-30 -25 -28 -46 -53 -46 -56 0 -12 -103 -218 -111 -223 -5 -3 -9 -17 -9 -32 0
-25 3 -23 57 31 54 55 101 83 53 32 -26 -28 -44 -114 -42 -204 1 -83 11 -94
33 -39 29 73 60 116 148 205 93 95 109 99 21 5 -72 -76 -101 -116 -118 -162
-27 -71 -22 -83 10 -25 32 57 186 231 196 220 3 -2 -11 -19 -30 -37 -40 -38
-97 -109 -123 -153 -14 -24 -9 -21 26 15 25 25 57 61 73 80 16 20 25 26 21 15
-10 -27 -15 -68 -8 -61 13 12 31 -29 21 -47 -5 -11 -6 -23 0 -30 5 -7 8 -27 6
-44 -2 -36 6 -42 26 -18 10 12 10 21 1 41 -6 14 -11 44 -10 67 l1 42 11 -55
c11 -48 15 -55 38 -58 14 -2 46 6 72 17 51 22 56 21 31 -3 -8 -9 -11 -16 -5
-16 9 0 31 31 31 44 0 2 -10 6 -22 9 -21 3 -20 4 7 11 17 4 50 16 75 26 25 10
61 24 81 30 20 6 45 19 57 30 12 11 25 20 31 20 11 0 25 30 22 50 -2 18 45 67
55 58 3 -4 -4 -16 -15 -27 -41 -41 -22 -60 39 -41 21 6 22 8 8 15 -9 4 -22 4
-28 0 -5 -3 -10 -2 -10 4 0 6 12 13 28 17 15 3 34 8 42 11 8 4 22 5 30 4 13
-2 13 0 1 8 -12 8 -12 12 -2 25 9 10 10 16 3 16 -6 0 -9 6 -6 14 3 8 1 17 -5
21 -8 4 -8 12 0 27 10 19 9 20 -11 15 -17 -4 -24 -1 -27 14 -3 11 -11 18 -18
15 -7 -2 -21 2 -32 9 -16 13 -16 14 -1 15 26 0 32 19 9 28 -15 5 -18 11 -11
22 8 12 12 13 19 2 11 -18 12 67 0 89 -5 10 -3 21 4 28 6 6 11 23 12 38 0 25
6 29 60 45 37 10 50 17 34 17 -14 1 -29 4 -33 9 -4 4 -20 8 -34 10 -56 5 -62
7 -60 17 3 13 -20 55 -30 55 -5 0 -22 -20 -40 -45 -22 -31 -27 -45 -17 -45 8
0 18 6 22 13 4 6 17 19 28 27 16 11 17 11 8 0 -7 -8 -13 -23 -13 -33 0 -16 3
-17 15 -7 18 15 20 -1 3 -19 -11 -10 -8 -16 15 -33 26 -19 37 -48 18 -48 -10
0 -78 45 -98 66 -17 17 -33 18 -33 3 0 -5 -5 -7 -11 -4 -6 4 -8 13 -5 21 8 20
-4 44 -20 44 -8 0 -14 7 -14 15 0 8 -4 15 -9 15 -5 0 -11 11 -14 25 -4 24 -3
24 13 10 9 -8 19 -12 22 -9 4 3 9 -4 13 -15 3 -12 11 -21 17 -21 5 0 8 7 4 15
-3 9 0 15 9 15 8 0 15 4 15 8 0 5 9 19 20 32 26 30 26 16 -1 -21 -11 -16 -18
-37 -15 -45 5 -12 12 -8 33 18 15 18 28 35 30 37 1 2 9 -2 18 -9 12 -10 15
-10 15 1 0 17 67 89 82 89 6 0 9 2 6 5 -3 3 -37 -5 -76 -19 -39 -13 -79 -22
-89 -20 -13 4 -25 -6 -40 -33 -13 -21 -23 -31 -23 -22 0 9 9 28 21 43 19 25
20 56 2 56 -5 0 -19 -18 -33 -40 -34 -56 -48 -50 -15 6 20 35 24 49 15 57 -8
9 -16 6 -30 -13 -11 -14 -20 -30 -20 -37 0 -6 -6 -18 -13 -25 -14 -14 -21 -61
-7 -53 4 3 6 -4 3 -15 -5 -20 -6 -20 -25 -3 -15 14 -21 15 -27 4 -7 -10 -18
-9 -56 8 -41 18 -46 24 -40 43 29 93 30 148 3 148 -10 0 -13 -18 -12 -66z
m-290 -320 c-4 -9 -9 -15 -11 -12 -3 3 -3 13 1 22 4 9 9 15 11 12 3 -3 3 -13
-1 -22z m394 16 c0 -5 -7 -10 -15 -10 -8 0 -15 5 -15 10 0 6 7 10 15 10 8 0
15 -4 15 -10z m-154 -27 c-10 -10 -19 5 -10 18 6 11 8 11 12 0 2 -7 1 -15 -2
-18z m273 1 c1 -10 14 -34 28 -52 25 -33 25 -34 5 -52 -11 -10 -22 -25 -25
-32 -2 -7 -8 -9 -13 -5 -5 4 -4 11 1 15 6 4 11 15 13 26 3 15 -1 13 -22 -8
-13 -15 -22 -34 -19 -42 3 -9 0 -14 -8 -12 -7 2 -14 -3 -15 -9 -1 -7 -2 -18
-3 -23 0 -6 -12 -15 -26 -22 -13 -6 -21 -16 -18 -22 4 -6 -1 -5 -10 3 -9 7
-15 17 -12 21 3 5 -5 6 -16 3 -12 -4 -24 -14 -26 -25 -6 -22 -23 -24 -23 -2 0
9 -6 14 -12 11 -7 -2 -12 -12 -12 -21 3 -26 -6 -19 -21 18 -8 19 -12 42 -9 50
7 19 40 30 56 19 9 -5 3 -9 -16 -13 -31 -5 -38 -23 -12 -28 18 -4 65 28 66 44
0 6 -15 16 -32 22 -31 10 -32 11 -10 17 26 9 29 40 7 72 -9 12 -11 24 -6 27 5
4 12 0 14 -6 3 -8 6 -6 6 5 1 12 9 17 29 17 15 0 36 7 47 15 27 21 89 14 94
-11z m45 -20 c3 -8 2 -12 -4 -9 -6 3 -10 10 -10 16 0 14 7 11 14 -7z m116 -7
c0 -7 -9 -18 -19 -24 -18 -11 -18 -10 -8 17 10 28 27 32 27 7z m-53 -63 c-9
-9 -28 6 -21 18 4 6 10 6 17 -1 6 -6 8 -13 4 -17z m-585 -21 c-12 -22 -76 -83
-71 -67 5 15 73 93 77 89 2 -2 -1 -12 -6 -22z m585 -45 c-3 -8 -6 -5 -6 6 -1
11 2 17 5 13 3 -3 4 -12 1 -19z m-602 -28 c-10 -11 -23 -20 -29 -20 -6 1 0 10
13 20 30 26 39 26 16 0z m-56 -67 c-15 -30 -69 -83 -58 -57 32 73 51 103 63
98 11 -4 10 -12 -5 -41z m744 -35 c12 -10 17 -18 12 -18 -16 0 -75 57 -75 72
1 7 10 2 21 -12 11 -14 30 -33 42 -42z m-174 38 c13 -15 6 -115 -8 -129 -10
-10 -21 -2 -51 37 -14 18 -13 19 5 12 11 -4 16 -4 12 0 -4 4 -2 13 5 21 9 11
8 13 -3 11 -13 -3 -15 17 -4 50 6 16 30 15 44 -2z m-83 -63 c-10 -10 -19 5
-10 18 6 11 8 11 12 0 2 -7 1 -15 -2 -18z m-428 5 c-2 -7 5 -12 15 -12 27 3
20 -13 -9 -20 -32 -8 -34 -7 -23 22 9 23 21 30 17 10z m322 -8 c0 -11 -2 -20
-4 -20 -2 0 -6 9 -9 20 -3 11 -1 20 4 20 5 0 9 -9 9 -20z m-250 -5 c-7 -8 -16
-12 -21 -9 -13 8 -1 24 18 24 13 0 13 -3 3 -15z m357 -20 c-4 -8 -1 -17 5 -21
7 -4 8 -3 4 4 -4 7 -2 12 3 12 15 0 13 -11 -4 -34 -11 -15 -17 -17 -29 -7 -11
9 -15 9 -19 -1 -2 -7 -4 -1 -4 15 0 20 4 27 16 25 9 -2 15 3 14 10 -2 6 2 12
8 12 6 0 9 -7 6 -15z m-408 -32 c-21 -27 -43 -42 -52 -36 -9 6 -37 -15 -37
-28 0 -5 7 -9 15 -9 12 0 11 -5 -3 -30 -19 -34 -34 -34 -39 -1 -2 12 1 20 6
16 6 -3 8 8 4 29 -3 18 -1 42 5 52 10 18 11 18 17 2 9 -24 31 -23 62 2 32 25
40 26 22 3z m323 -1 c17 -17 0 -28 -22 -14 -16 10 -19 8 -25 -19 -9 -42 -16
-31 -8 14 4 29 10 36 24 34 11 -2 25 -9 31 -15z m111 -22 c-5 -19 -23 -29 -23
-12 0 7 20 32 26 32 1 0 0 -9 -3 -20z m-176 -69 c20 -12 14 -14 -12 -5 -8 4
-22 19 -30 35 -22 41 -18 49 4 12 11 -17 28 -36 38 -42z m123 49 c0 -5 -4 -10
-10 -10 -5 0 -10 5 -10 10 0 6 5 10 10 10 6 0 10 -4 10 -10z m-148 -66 c18 -9
41 -13 57 -10 22 5 23 5 7 -5 -20 -13 -92 -5 -113 13 -7 6 -13 22 -13 36 l0
26 16 -22 c8 -12 29 -29 46 -38z m186 44 c-3 -7 -13 -15 -24 -17 -16 -3 -17
-1 -5 13 16 19 34 21 29 4z m-278 -28 c0 -5 -2 -10 -4 -10 -3 0 -8 5 -11 10
-3 6 -1 10 4 10 6 0 11 -4 11 -10z m-263 -62 c-3 -8 -6 -5 -6 6 -1 11 2 17 5
13 3 -3 4 -12 1 -19z m392 -15 c2 -2 2 -6 -1 -9 -7 -7 -64 21 -73 36 -5 8 54
-14 74 -27z m-49 -18 c0 -2 -9 -3 -19 -2 -11 0 -18 5 -15 9 4 6 34 0 34 -7z"/>
<path d="M4263 5286 c3 -8 0 -39 -8 -68 -8 -31 -10 -54 -4 -56 5 -2 16 -10 24
-19 8 -8 16 -12 16 -9 1 6 5 22 8 31 0 2 12 0 26 -5 21 -8 27 -6 39 13 8 12
17 33 21 47 4 14 13 28 19 33 8 5 6 10 -4 17 -23 15 -32 8 -48 -43 -8 -26 -18
-47 -23 -47 -4 0 0 23 9 50 12 37 13 53 5 61 -19 19 -30 2 -38 -56 -3 -30 -11
-55 -17 -55 -6 0 -7 16 -2 43 11 66 10 71 -10 75 -14 3 -17 0 -13 -12z"/>
<path d="M4074 5275 c1 -8 10 -23 20 -34 26 -29 13 -87 -22 -99 l-27 -9 22
-11 c19 -11 28 -8 63 15 39 27 40 29 34 73 -3 25 -9 49 -14 53 -14 15 -21 -12
-10 -34 7 -11 9 -23 7 -26 -7 -6 -32 38 -32 56 0 8 -10 17 -22 22 -15 5 -20 4
-19 -6z"/>
<path d="M3710 5270 c0 -5 5 -10 11 -10 5 0 7 5 4 10 -3 6 -8 10 -11 10 -2 0
-4 -4 -4 -10z"/>
<path d="M3610 5189 c0 -5 5 -7 10 -4 6 3 10 8 10 11 0 2 -4 4 -10 4 -5 0 -10
-5 -10 -11z"/>
<path d="M3768 5143 c0 -10 -2 -23 -2 -29 -1 -6 -8 -21 -17 -34 -14 -22 -15
-22 -33 -4 -18 18 -18 17 -13 -1 4 -11 7 -36 8 -55 2 -77 11 -132 20 -123 6 6
6 20 -1 38 -12 31 -6 61 18 88 25 29 38 20 39 -28 1 -26 -3 -45 -9 -45 -15 0
-1 -63 17 -73 11 -6 12 -13 6 -25 -14 -25 -14 -34 -2 -42 8 -4 5 -15 -9 -32
-12 -16 -16 -28 -9 -30 7 -2 7 -12 0 -31 -6 -15 -7 -27 -3 -27 10 0 44 82 71
168 11 35 27 72 37 83 17 18 16 20 -5 43 -12 13 -25 36 -30 52 -4 15 -14 30
-22 32 -11 4 -12 2 -1 -9 6 -7 12 -20 12 -28 0 -11 -6 -9 -20 9 -13 16 -18 34
-15 50 5 24 5 24 -10 6 -15 -20 -15 -20 -16 0 -1 10 0 29 1 42 1 12 -1 22 -4
22 -3 0 -7 -8 -8 -17z"/>
<path d="M3810 5140 c0 -6 -4 -8 -10 -5 -5 3 -10 3 -10 -2 0 -4 12 -13 26 -20
23 -11 25 -10 22 9 -3 22 -28 38 -28 18z"/>
<path d="M3670 5039 c0 -5 5 -7 10 -4 6 3 10 8 10 11 0 2 -4 4 -10 4 -5 0 -10
-5 -10 -11z"/>
<path d="M3743 5004 c-3 -8 -2 -19 3 -24 5 -5 9 1 9 16 0 28 -3 30 -12 8z"/>
<path d="M4637 4863 c3 -27 7 -55 9 -63 8 -23 24 10 19 37 -3 13 -7 34 -10 48
-9 44 -23 27 -18 -22z"/>
<path d="M4780 4537 c0 -2 14 -13 30 -25 17 -13 30 -19 30 -14 0 4 -13 16 -30
25 -16 10 -30 16 -30 14z"/>
<path d="M4655 4510 c3 -5 8 -10 11 -10 2 0 4 5 4 10 0 6 -5 10 -11 10 -5 0
-7 -4 -4 -10z"/>
<path d="M4565 4490 c3 -5 8 -10 11 -10 2 0 4 5 4 10 0 6 -5 10 -11 10 -5 0
-7 -4 -4 -10z"/>
<path d="M4615 4472 c-11 -2 -27 -6 -35 -9 -8 -3 -28 -5 -44 -4 -16 2 -31 -1
-35 -6 -8 -10 -98 -53 -113 -53 -6 0 -19 -7 -29 -16 -9 -8 -26 -16 -37 -17
-14 -1 -19 -7 -17 -24 1 -13 -2 -23 -7 -23 -16 0 -151 -111 -173 -141 -11 -15
-47 -63 -80 -106 -57 -75 -135 -213 -135 -240 0 -7 -5 -13 -11 -13 -6 0 -8 -7
-5 -17 4 -9 -7 -44 -24 -80 -17 -35 -29 -72 -27 -81 4 -14 6 -13 12 5 4 13 11
20 16 17 9 -5 -7 -44 -23 -55 -10 -6 1 -69 12 -69 11 0 86 160 122 257 16 46
40 98 52 115 12 18 39 62 60 97 62 101 151 207 206 243 27 18 50 36 50 40 0
13 -13 9 -40 -12 -14 -11 -30 -20 -35 -20 -14 0 -82 -72 -131 -140 -118 -161
-165 -238 -188 -308 -26 -77 -29 -59 -4 23 28 97 60 156 138 260 86 114 96
124 176 181 47 34 62 49 52 55 -7 5 -11 9 -8 10 3 0 13 2 23 4 9 2 17 0 17 -5
0 -4 22 4 50 18 27 14 47 28 45 32 -3 4 14 12 38 18 33 8 38 8 24 -1 -106 -68
-137 -90 -133 -95 5 -5 74 26 86 38 12 13 62 41 66 37 2 -2 -5 -12 -16 -22
-11 -10 -20 -26 -20 -35 0 -21 -27 -34 -34 -17 -2 7 -5 2 -5 -10 -3 -69 68
-12 119 96 25 55 36 48 16 -10 -8 -24 -12 -46 -9 -49 3 -3 8 1 10 8 3 7 11 18
18 25 7 8 11 25 8 39 -5 28 14 48 27 28 4 -7 4 -25 0 -39 -15 -49 -42 -251
-37 -273 8 -27 -3 -79 -14 -72 -5 3 -9 -1 -10 -8 0 -7 -4 -4 -9 7 -5 12 -6 -2
-3 -36 5 -46 3 -57 -11 -62 -25 -10 -31 17 -20 85 8 43 7 64 -1 75 -10 14 -13
12 -20 -13 -5 -16 -8 -32 -7 -36 1 -4 -5 -5 -13 -2 -19 8 -19 10 2 44 9 16 25
31 35 33 14 4 18 15 18 46 0 23 -2 41 -5 41 -3 0 -12 -17 -20 -37 -9 -21 -24
-47 -34 -58 -11 -11 -22 -35 -26 -52 -3 -18 -11 -35 -16 -39 -5 -3 -8 -2 -7 3
2 4 -1 10 -7 13 -6 3 -13 -14 -16 -38 -4 -32 -2 -45 8 -49 7 -3 13 -11 13 -19
0 -8 -6 -11 -17 -7 -10 4 -14 2 -9 -5 3 -6 2 -13 -4 -17 -7 -4 -6 -13 1 -28
11 -21 11 -21 -7 -5 -29 25 -59 79 -41 72 26 -9 29 15 8 49 -20 30 -21 30 -19
7 2 -13 -1 -25 -7 -26 -24 -4 -55 -17 -55 -23 0 -3 9 -12 21 -19 16 -10 19
-19 15 -38 -5 -17 -3 -23 4 -19 5 3 10 14 10 23 1 27 42 -29 86 -116 27 -54
35 -77 26 -80 -8 -2 6 -24 37 -57 28 -30 51 -60 51 -67 0 -7 -7 -3 -15 9 -9
13 -41 42 -73 66 -36 28 -63 58 -72 81 -7 20 -17 36 -22 36 -8 0 0 -29 15 -48
7 -9 6 -11 -6 -7 -8 4 -25 38 -38 77 -24 76 -52 111 -84 106 -16 -2 -19 -9
-17 -33 2 -16 11 -38 20 -49 13 -13 17 -36 16 -86 -1 -80 -25 -126 -106 -199
-55 -50 -74 -80 -83 -136 -3 -22 -10 -58 -15 -80 -4 -22 -14 -67 -20 -100 -15
-80 -40 -164 -56 -195 -14 -27 -61 -180 -75 -245 -10 -49 -10 -146 0 -200 7
-39 7 -39 19 -17 18 31 35 17 30 -24 -2 -19 -1 -34 3 -34 3 0 9 22 13 50 7 50
19 70 30 48 3 -7 4 -1 2 14 -1 15 1 25 5 22 5 -3 9 5 9 18 0 18 -2 20 -10 8
-14 -22 -12 -3 4 28 7 15 14 47 15 72 0 25 6 61 11 80 6 19 24 142 41 273 36
287 54 369 86 381 12 5 13 3 5 -7 -6 -7 -9 -29 -7 -50 1 -20 -1 -34 -6 -31 -5
3 -9 0 -9 -6 0 -6 6 -13 13 -15 16 -7 15 -68 -1 -88 -11 -13 -11 -17 1 -24 8
-4 16 -17 18 -28 3 -27 -11 -75 -22 -75 -5 0 -9 -7 -9 -15 0 -8 5 -15 10 -15
6 0 10 -9 10 -20 0 -20 1 -20 30 -5 28 15 42 45 20 45 -5 0 -10 -4 -10 -10 0
-5 -4 -10 -10 -10 -5 0 -8 6 -6 13 3 6 7 24 10 40 5 19 13 27 29 27 l22 0 -23
18 c-17 13 -22 27 -22 57 0 22 0 50 0 63 0 19 4 22 23 17 21 -6 21 -6 3 9 -11
9 -23 16 -27 16 -10 0 12 83 27 101 8 8 14 22 14 30 0 12 2 11 10 -1 7 -12 11
-8 16 17 4 18 10 30 15 27 5 -3 9 8 9 25 0 48 20 48 21 -1 1 -24 4 -68 6 -98
2 -30 5 -101 5 -157 1 -57 6 -103 10 -103 5 0 8 -6 7 -12 -1 -7 1 -20 4 -28 6
-13 22 -168 47 -455 5 -55 12 -118 15 -140 6 -39 6 -40 -9 -14 -11 19 -24 26
-50 27 -46 2 -68 -19 -109 -98 -36 -70 -75 -106 -182 -165 -56 -30 -61 -36
-69 -80 -8 -37 -7 -48 5 -56 11 -7 11 -9 1 -9 -10 0 -12 -9 -7 -32 4 -18 11
-34 16 -36 5 -2 6 -22 2 -44 -5 -36 -4 -40 10 -35 9 3 16 3 16 -1 -1 -4 -1
-20 0 -36 l1 -29 58 6 57 6 -75 -27 c-42 -15 -91 -37 -110 -48 -40 -23 -52
-54 -22 -54 10 0 21 -2 24 -5 7 -7 -21 -148 -55 -275 -8 -30 -25 -99 -37 -152
-13 -54 -26 -98 -30 -98 -4 0 -7 -6 -8 -12 -6 -49 -16 -80 -28 -85 -8 -3 -14
-13 -14 -22 0 -9 -5 -22 -11 -28 -8 -8 -7 -13 1 -18 6 -4 15 -3 20 1 19 20 80
190 104 291 76 314 86 362 84 370 -1 4 2 23 6 41 6 25 16 37 42 48 60 25 65
21 58 -43 -3 -32 -11 -76 -17 -98 -5 -22 -11 -47 -13 -55 -9 -54 -55 -213 -72
-253 -12 -26 -21 -50 -21 -54 0 -4 -7 -8 -16 -9 -11 -2 -15 8 -16 34 -1 37 -1
37 -9 8 -7 -21 -5 -35 5 -50 17 -23 20 -66 5 -66 -6 0 -9 -3 -8 -7 2 -14 -14
-43 -24 -43 -6 0 -5 7 2 15 7 9 10 18 7 21 -3 3 -13 -9 -23 -28 -9 -18 -20
-35 -24 -38 -4 -3 -17 -24 -29 -48 -22 -43 -60 -69 -72 -50 -4 6 -9 6 -14 -2
-4 -6 -19 -16 -33 -22 -27 -11 -40 -13 -121 -19 -50 -4 -60 -20 -53 -86 5 -47
3 -47 87 -33 33 5 89 12 125 15 35 4 67 8 71 11 4 2 40 6 81 9 40 2 84 7 98
10 14 3 59 10 100 16 84 12 93 16 87 33 -7 18 9 40 22 31 7 -3 9 -15 6 -24 -5
-17 5 -18 167 -14 95 2 180 4 188 5 8 0 65 -7 125 -15 61 -9 146 -19 190 -22
97 -8 141 -12 225 -20 79 -8 70 -8 98 -6 20 1 21 3 10 21 -13 20 -38 28 -38
11 0 -13 -113 -1 -138 15 -13 9 -26 13 -29 10 -9 -9 -44 14 -38 24 3 6 -1 7
-9 4 -9 -3 -16 -10 -16 -16 0 -5 5 -6 12 -2 7 4 8 3 4 -4 -10 -17 -26 -15 -26
3 0 8 -4 15 -9 15 -4 0 -6 18 -4 40 3 25 1 40 -6 40 -6 0 -11 5 -11 11 0 7 11
9 31 5 17 -3 29 -2 27 2 -2 4 -16 31 -31 60 -27 50 -113 350 -103 359 2 3 -1
26 -9 51 -27 101 -39 190 -26 206 7 8 10 20 6 26 -7 11 14 13 31 2 6 -4 14
-27 19 -52 4 -25 10 -58 13 -75 3 -16 6 -46 6 -67 1 -20 4 -34 9 -31 4 2 7 -6
8 -19 2 -69 34 -205 90 -375 l31 -93 54 0 55 0 -30 43 c-16 23 -37 67 -46 97
-9 30 -25 75 -36 100 -10 25 -23 65 -29 90 -5 25 -25 90 -45 144 -19 55 -35
102 -35 105 0 3 10 -5 21 -19 14 -16 19 -19 15 -7 -11 36 5 15 25 -30 46 -109
53 -122 67 -128 9 -3 20 -1 26 5 10 10 4 25 -50 120 -21 37 -24 53 -19 90 5
38 2 50 -17 75 -12 16 -16 25 -8 20 13 -7 13 -6 2 7 -7 9 -13 41 -14 73 l-2
57 -22 -39 c-46 -78 -42 -76 -109 -43 -48 23 -63 36 -73 63 -8 22 -25 40 -50
53 -29 16 -38 27 -40 51 -2 23 2 33 15 37 19 6 27 38 23 86 -5 70 -4 94 6 97
8 3 14 -22 19 -71 11 -123 67 -301 87 -280 3 3 4 25 2 49 l-4 44 50 -25 c30
-15 50 -32 50 -42 1 -15 2 -15 15 2 8 11 15 28 15 37 0 27 -48 59 -90 59 -60
0 -80 30 -80 123 l0 76 25 -24 c28 -29 34 -30 60 -11 38 28 -17 76 -112 97
-33 8 -62 22 -79 40 l-26 28 21 29 c23 32 27 52 11 52 -5 0 -10 21 -10 48 0
34 3 43 10 32 7 -11 9 -5 7 22 -2 41 14 52 25 16 9 -32 8 -2 -1 55 -6 34 -5
47 4 47 7 0 17 -31 24 -77 7 -43 17 -102 22 -132 5 -29 7 -56 5 -60 -3 -4 -22
-8 -43 -9 -43 -3 -58 -14 -50 -35 4 -11 14 -13 39 -8 18 4 61 7 96 6 34 0 62
3 62 6 0 11 -36 39 -51 39 -15 0 -20 31 -23 152 -1 75 13 92 31 38 8 -26 13
-31 18 -19 9 23 -11 93 -32 111 -26 21 -97 41 -128 36 -25 -5 -27 -3 -23 23 3
18 1 28 -6 26 -6 -2 -11 -12 -11 -23 0 -39 -20 -12 -22 29 0 23 -7 75 -14 115
-10 56 -10 75 -1 84 9 9 12 8 12 -4 0 -9 4 -20 10 -23 7 -4 7 2 1 18 -6 14 -7
28 -3 32 3 3 -1 3 -11 -1 -12 -4 -17 -1 -17 13 0 20 35 47 50 38 6 -4 10 -1
10 5 0 7 -12 9 -35 4 -35 -6 -35 -6 -35 32 0 20 3 34 7 30 4 -3 13 4 20 16 8
13 12 16 10 8 -2 -8 3 -21 12 -28 9 -8 10 -10 3 -7 -11 6 -11 3 -1 -13 7 -12
17 -18 22 -15 4 3 11 -4 14 -16 3 -12 9 -21 14 -21 5 0 11 0 14 0 3 0 5 2 5 5
0 3 -3 5 -6 4 -12 -1 -22 23 -17 42 4 15 9 17 19 9 10 -9 14 -2 19 34 4 25 11
46 16 46 12 0 28 -41 22 -56 -2 -7 0 -15 6 -18 13 -8 34 31 27 50 -3 8 -2 14
3 14 14 0 20 -37 8 -49 -7 -7 -6 -15 4 -27 7 -9 15 -28 17 -42 5 -41 12 -40
12 2 0 44 35 96 64 96 12 0 28 5 36 10 13 8 13 10 -1 10 -18 0 -49 41 -48 62
0 7 5 4 10 -7 23 -48 100 -54 147 -11 63 57 132 231 132 334 0 38 5 73 11 79
6 6 9 19 6 29 -4 16 -5 15 -6 -3 -1 -29 -36 -51 -119 -75 -86 -24 -152 -29
-152 -11 0 9 14 13 41 13 24 0 38 4 34 10 -3 6 -14 10 -25 10 -10 0 -20 6 -23
13 -3 8 -26 20 -51 27 -44 12 -64 26 -53 36 2 3 29 -6 58 -20 72 -32 119 -47
131 -40 11 7 -10 34 -27 34 -11 0 -44 12 -144 51 -18 8 -21 13 -12 22 8 8 24
5 64 -15 58 -30 137 -47 137 -30 0 12 -55 42 -77 42 -7 0 -13 5 -13 10 0 6 -9
10 -21 10 -11 0 -32 9 -46 20 -14 11 -32 20 -39 20 -24 0 -15 17 11 24 18 5
37 -2 67 -21 34 -23 52 -28 104 -28 82 0 93 11 65 65 -11 22 -21 48 -21 56 0
31 -25 7 -42 -42 l-19 -49 7 44 c6 42 5 44 -17 38 -13 -3 -29 -2 -35 4 -9 7
-16 4 -24 -12 -19 -35 -31 -2 -14 39 8 19 14 41 14 48 0 21 -20 17 -21 -3 0
-11 -3 -13 -6 -5 -9 24 -23 11 -23 -22 0 -21 -6 -36 -16 -40 -9 -4 -13 -2 -8
5 4 7 8 26 9 43 1 17 10 45 21 61 27 41 45 97 31 92 -7 -2 -16 -18 -21 -35
-10 -36 -26 -43 -26 -12 0 17 -4 19 -27 14 -41 -10 -70 -35 -82 -69 -9 -26
-10 -23 -8 29 1 40 -2 61 -10 63 -8 3 -13 -4 -13 -19 0 -13 -7 -33 -15 -45 -9
-13 -18 -51 -22 -86 -5 -59 -8 -64 -29 -64 -22 0 -24 3 -24 54 0 65 18 103 72
152 23 20 61 53 85 75 24 21 43 43 43 48 0 7 -4 7 -12 0 -7 -5 -40 -24 -73
-42 -77 -41 -92 -55 -106 -99 -20 -62 -26 -54 -17 26 6 55 5 79 -3 84 -14 8
-7 105 11 156 11 29 14 32 43 26 18 -3 34 -10 35 -15 2 -4 9 -8 16 -8 7 0 34
-14 60 -31 46 -31 78 -34 40 -4 -67 53 -186 96 -239 87z m-70 -111 c-3 -6 -11
-11 -17 -11 -6 0 -6 6 2 15 14 17 26 13 15 -4z m302 -257 c-8 -16 -21 -45 -30
-64 -19 -41 -22 -28 -5 21 11 32 40 80 46 75 1 -2 -4 -16 -11 -32z m-374 -69
c-3 -9 -8 -14 -10 -11 -3 3 -2 9 2 15 9 16 15 13 8 -4z m274 -7 c-3 -8 -6 -5
-6 6 -1 11 2 17 5 13 3 -3 4 -12 1 -19z m-280 -33 c0 -8 -4 -12 -9 -9 -5 3 -6
10 -3 15 9 13 12 11 12 -6z m21 -69 c2 -10 -2 -23 -8 -30 -10 -8 -12 -6 -7 12
3 12 1 22 -4 22 -5 0 -9 5 -9 11 0 17 25 4 28 -15z m217 -9 c1 -38 -13 -44
-25 -12 -14 37 -12 47 8 43 11 -2 17 -13 17 -31z m-144 1 c1 -13 3 -34 4 -48
2 -14 6 -52 9 -85 4 -33 9 -78 12 -100 5 -39 5 -40 -12 -17 -11 16 -17 47 -18
97 0 40 -4 71 -7 69 -8 -5 -21 85 -13 97 10 17 24 9 25 -13z m384 4 c-3 -3
-11 0 -18 7 -9 10 -8 11 6 5 10 -3 15 -9 12 -12z m-497 -97 c-3 -3 -9 2 -12
12 -6 14 -5 15 5 6 7 -7 10 -15 7 -18z m412 -95 c8 -5 12 -12 9 -15 -8 -8 -39
5 -39 16 0 11 11 11 30 -1z m-54 -47 c-13 -24 -15 -25 -16 -7 0 11 5 25 12 32
19 19 21 6 4 -25z m99 -95 c-9 -29 -27 -75 -40 -103 -13 -27 -37 -80 -53 -117
-32 -70 -37 -75 -62 -57 -13 9 -12 10 3 5 13 -4 21 4 33 34 9 22 25 57 35 77
11 21 19 44 19 53 0 9 5 21 10 26 7 7 6 11 -4 11 -8 0 -12 -5 -9 -10 3 -6 1
-7 -6 -3 -9 6 -9 11 0 22 10 12 9 13 -5 8 -12 -5 -15 -2 -10 10 3 9 10 13 15
10 5 -3 9 0 9 7 0 9 3 9 14 0 12 -10 18 -7 31 18 8 17 13 31 10 31 -3 0 -1 9
5 21 20 36 23 12 5 -43z m-415 6 c0 -3 -9 0 -19 6 -15 7 -23 6 -35 -6 -14 -13
-16 -13 -16 -1 0 9 3 22 6 31 5 14 10 13 35 -5 16 -11 29 -22 29 -25z m384 30
c3 -8 2 -12 -4 -9 -6 3 -10 10 -10 16 0 14 7 11 14 -7z m-480 -76 c-3 -4 -1
-8 4 -8 19 0 24 -26 35 -197 1 -13 6 -23 10 -23 4 0 7 -6 6 -12 -4 -30 15 -78
39 -100 15 -13 20 -15 13 -5 -12 14 -11 17 3 17 19 0 21 -21 4 -38 -16 -16
-17 -34 -2 -47 16 -13 28 -214 29 -475 0 -107 5 -206 9 -219 5 -13 21 -46 37
-73 27 -45 42 -83 19 -48 -6 10 -10 11 -10 3 0 -7 9 -22 20 -33 11 -11 20 -25
20 -31 0 -16 -53 30 -84 74 -15 21 -52 56 -82 78 -51 37 -67 59 -44 59 6 0 10
7 10 15 0 8 6 12 14 9 12 -4 13 2 6 32 -5 23 -5 45 1 56 13 24 21 23 17 -4 -2
-11 3 -23 10 -26 10 -3 11 3 6 24 -4 16 -7 34 -7 41 0 7 -4 13 -9 13 -14 0 -9
67 6 80 12 9 13 17 4 36 -9 19 -9 33 0 57 8 21 8 35 2 41 -13 13 -13 46 0 46
6 0 10 5 10 11 0 5 -5 7 -12 3 -7 -5 -9 -2 -5 8 3 9 0 21 -6 28 -9 10 -9 11 1
6 14 -8 16 5 3 20 -5 5 -11 46 -13 92 -4 69 -2 82 9 77 9 -3 13 0 11 7 -2 6
-14 12 -26 13 -21 2 -28 -14 -23 -54 2 -7 -2 -10 -7 -7 -6 3 -10 21 -10 38 0
18 -5 80 -11 138 -16 148 -24 353 -11 316 5 -16 7 -33 4 -38z m383 -39 c-14
-35 -30 -84 -37 -109 -7 -25 -14 -51 -17 -59 -2 -10 -7 -11 -14 -4 -8 8 -4 30
15 76 14 36 26 69 26 73 0 13 42 95 47 91 2 -3 -7 -33 -20 -68z m-309 0 c13
-16 19 -29 14 -29 -9 0 -33 25 -46 48 -14 23 9 11 32 -19z m345 -41 c-10 -11
-17 -22 -16 -24 7 -12 -11 -61 -22 -61 -11 0 -11 5 1 22 8 12 11 25 7 28 -3 4
-1 7 6 7 7 0 10 4 7 9 -3 5 1 14 9 21 8 7 12 17 8 23 -4 6 -1 7 6 3 9 -6 8
-13 -6 -28z m-209 -38 c-2 -47 1 -60 12 -60 8 0 14 -4 14 -10 0 -5 -6 -10 -14
-10 -16 0 -29 27 -20 41 3 5 2 9 -3 9 -13 0 -13 74 0 82 7 4 13 8 13 8 1 0 0
-27 -2 -60z m159 -81 c-8 -8 -13 -7 -18 2 -5 8 -4 10 3 5 7 -4 12 -2 12 5 0 7
3 9 7 6 4 -4 2 -12 -4 -18z m-133 -39 c0 -5 -4 -10 -10 -10 -5 0 -7 -8 -3 -17
4 -14 3 -15 -6 -7 -6 6 -9 18 -5 27 7 18 24 23 24 7z m-623 -492 c-3 -8 -6 -5
-6 6 -1 11 2 17 5 13 3 -3 4 -12 1 -19z m-23 -90 c-14 -20 -15 -20 -9 -3 4 11
10 29 13 40 5 17 7 18 10 3 2 -10 -4 -28 -14 -40z m676 -52 c0 -3 -4 -8 -10
-11 -5 -3 -10 -1 -10 4 0 6 5 11 10 11 6 0 10 -2 10 -4z m-260 -206 c0 -5 -2
-10 -4 -10 -3 0 -8 5 -11 10 -3 6 -1 10 4 10 6 0 11 -4 11 -10z m-101 -77 c10
-19 11 -23 12 -50 0 -10 7 -2 14 17 13 33 14 31 14 -60 -1 -52 2 -116 6 -142
5 -40 4 -48 -9 -48 -9 0 -16 -8 -15 -17 0 -11 3 -13 6 -5 14 34 18 -1 15 -130
-1 -79 -3 -210 -3 -293 -1 -138 -3 -152 -23 -174 -11 -13 -14 -20 -6 -16 13 8
13 7 1 -9 -22 -27 -29 -5 -36 119 -5 82 -10 763 -6 818 1 13 20 7 30 -10z
m119 -33 c0 -3 3 -15 7 -28 5 -16 13 -21 25 -17 16 5 19 -2 25 -52 10 -91 12
-101 14 -55 0 23 6 42 11 42 6 0 10 -5 10 -11 0 -5 4 -8 9 -4 11 6 18 -16 20
-68 2 -52 -8 -85 -20 -66 -7 11 -9 11 -9 -3 0 -9 8 -21 18 -27 13 -8 14 -12 5
-22 -7 -7 -9 -18 -4 -28 12 -24 13 -124 1 -131 -13 -8 -15 -68 -5 -140 9 -71
10 -138 2 -147 -4 -3 -2 -12 3 -18 8 -9 6 -14 -4 -18 -9 -4 -13 -15 -11 -27 4
-22 -19 -88 -27 -74 -3 5 -4 26 -3 46 1 22 -2 35 -8 31 -6 -4 -7 4 -4 18 4 14
9 97 12 184 7 183 -9 196 -19 16 -4 -62 -11 -121 -16 -131 -5 -9 -12 -32 -15
-51 -7 -42 -21 -57 -36 -42 -12 12 -26 797 -14 833 5 16 9 17 20 7 7 -6 13
-14 13 -17z m-223 -21 c-3 -5 1 -6 11 -2 14 5 15 3 6 -14 -6 -11 -9 -23 -5
-26 3 -3 0 -20 -5 -37 -8 -23 -8 -29 0 -24 8 5 9 1 3 -12 -4 -10 -9 -41 -10
-67 -1 -26 -5 -51 -9 -54 -3 -4 -6 -2 -6 4 0 6 -8 9 -17 7 -11 -2 -40 17 -77
51 -37 34 -53 55 -43 55 10 0 17 5 17 11 0 5 5 7 11 3 8 -5 8 -8 0 -14 -9 -5
-7 -11 5 -21 16 -12 17 -12 12 3 -4 9 -4 19 0 22 3 4 7 15 9 26 1 10 14 31 28
46 14 15 24 33 21 40 -3 8 0 11 8 8 8 -3 17 0 21 5 3 6 11 9 16 5 5 -3 7 -10
4 -15z m496 -105 c-9 -28 -9 -29 -10 -3 -1 14 2 29 6 32 11 12 13 2 4 -29z
m-71 -86 c0 -58 -1 -61 -13 -38 -14 27 -11 100 4 100 5 0 9 -28 9 -62z m22
-136 l12 -27 4 23 4 24 25 -24 26 -23 -6 23 c-6 27 4 29 20 4 13 -22 39 -186
53 -347 5 -66 19 -160 29 -210 11 -49 22 -116 26 -148 7 -53 10 -60 36 -69 16
-5 30 -14 30 -19 3 -20 5 -24 13 -37 5 -9 1 -15 -13 -19 -14 -4 -21 -12 -19
-24 2 -10 -1 -19 -7 -21 -5 -2 -14 22 -18 52 -5 30 -15 62 -21 70 -16 19 -62
214 -71 295 -23 231 -50 302 -40 103 9 -151 29 -309 45 -338 17 -32 20 -127 3
-127 -7 0 -13 10 -13 22 0 13 -6 28 -13 34 -11 8 -13 7 -12 -7 0 -9 5 -23 9
-30 6 -10 0 -13 -25 -10 -23 2 -35 9 -37 21 -3 16 -1 17 18 7 20 -11 21 -10
10 10 -6 11 -19 20 -28 19 -28 -4 -142 12 -142 20 0 4 21 4 48 0 107 -18 210
-7 169 18 -18 11 -33 93 -47 250 -19 213 -24 234 -30 123 l-5 -95 -9 93 c-5
50 -12 92 -17 92 -11 0 -13 -32 -9 -115 1 -33 -1 -57 -5 -53 -3 3 -9 50 -12
105 -5 104 -9 148 -13 161 -1 4 -1 17 0 29 1 13 -2 28 -7 35 -20 33 -5 156 18
142 6 -3 15 -18 21 -32z m-468 -34 c8 -31 7 -40 -1 -35 -5 3 -8 -23 -9 -56 -2
-127 -7 -196 -14 -192 -9 5 -13 281 -5 295 10 17 22 11 29 -12z m37 -113 c-6
-22 -13 -71 -16 -109 -3 -39 -8 -72 -12 -75 -9 -9 5 163 20 239 11 61 12 63
15 25 2 -21 -1 -57 -7 -80z m386 13 c-3 -8 -6 -5 -6 6 -1 11 2 17 5 13 3 -3 4
-12 1 -19z m-357 -100 c0 -21 -3 -29 -10 -22 -5 5 -7 19 -4 32 9 31 14 27 14
-10z m-13 -95 c-3 -10 -5 -4 -5 12 0 17 2 24 5 18 2 -7 2 -21 0 -30z m719 -60
c-10 -10 -19 5 -10 18 6 11 8 11 12 0 2 -7 1 -15 -2 -18z m-719 -35 c-3 -7 -5
-2 -5 12 0 14 2 19 5 13 2 -7 2 -19 0 -25z m-43 -34 c3 -8 2 -12 -4 -9 -6 3
-10 10 -10 16 0 14 7 11 14 -7z m364 -30 c-2 -23 -4 -23 -15 -8 -13 17 -9 34
7 34 6 0 9 -12 8 -26z m101 -26 c1 -10 -2 -18 -6 -18 -5 0 -9 17 -10 38 -1 28
0 32 7 17 5 -11 9 -28 9 -37z m50 -88 c8 -97 3 -136 -16 -116 -8 8 -12 226 -4
241 7 13 9 3 20 -125z m288 78 c-3 -8 -6 -5 -6 6 -1 11 2 17 5 13 3 -3 4 -12
1 -19z m27 -49 c11 -55 5 -66 -10 -19 -16 54 -16 50 -5 50 5 0 11 -14 15 -31z
m-367 -11 c-3 -8 -6 -5 -6 6 -1 11 2 17 5 13 3 -3 4 -12 1 -19z m-337 -40 c0
-18 -5 -40 -10 -48 -7 -11 -10 -2 -10 33 0 26 5 47 10 47 6 0 10 -15 10 -32z
m327 -30 c-3 -7 -5 -2 -5 12 0 14 2 19 5 13 2 -7 2 -19 0 -25z m-351 -65 c-10
-10 -19 5 -10 18 6 11 8 11 12 0 2 -7 1 -15 -2 -18z m653 -33 c0 -9 -6 -4 -14
10 -8 14 -14 32 -14 40 0 9 6 4 14 -10 8 -14 14 -32 14 -40z m144 25 c10 -14
14 -25 9 -25 -6 0 -17 11 -26 25 -21 32 -7 32 17 0z"/>
<path d="M4471 2684 c0 -11 3 -14 6 -6 3 7 2 16 -1 19 -3 4 -6 -2 -5 -13z"/>
<path d="M4307 2313 c-4 -3 -7 -16 -6 -27 0 -19 1 -19 10 3 10 24 8 36 -4 24z"/>
<path d="M4300 2219 c0 -11 4 -18 10 -14 5 3 7 12 3 20 -7 21 -13 19 -13 -6z"/>
<path d="M4291 2114 c0 -11 3 -14 6 -6 3 7 2 16 -1 19 -3 4 -6 -2 -5 -13z"/>
<path d="M4287 1953 c-4 -3 -7 -11 -7 -17 0 -6 5 -5 12 2 6 6 9 14 7 17 -3 3
-9 2 -12 -2z"/>
<path d="M4309 1843 c0 -16 -2 -38 -3 -51 -2 -20 12 -45 15 -25 7 54 7 103 -1
103 -6 0 -10 -12 -11 -27z"/>
<path d="M4301 1514 c0 -11 3 -14 6 -6 3 7 2 16 -1 19 -3 4 -6 -2 -5 -13z"/>
<path d="M4483 2050 c0 -25 2 -35 4 -22 2 12 2 32 0 45 -2 12 -4 2 -4 -23z"/>
<path d="M4481 1974 c0 -11 3 -14 6 -6 3 7 2 16 -1 19 -3 4 -6 -2 -5 -13z"/>
<path d="M4476 1925 c4 -8 8 -15 10 -15 2 0 4 7 4 15 0 8 -4 15 -10 15 -5 0
-7 -7 -4 -15z"/>
<path d="M4405 1869 c4 -30 7 -105 7 -166 -1 -66 2 -113 8 -113 5 0 7 16 5 34
-3 19 -1 37 4 40 5 3 9 36 9 72 0 36 3 68 6 71 3 3 -4 21 -14 40 -10 19 -16
41 -14 48 3 7 0 16 -7 21 -9 5 -10 -5 -4 -47z"/>
<path d="M4651 1954 c0 -11 3 -14 6 -6 3 7 2 16 -1 19 -3 4 -6 -2 -5 -13z"/>
<path d="M4630 1925 c0 -20 17 -28 23 -11 3 8 -1 17 -9 20 -8 3 -14 -1 -14 -9z"/>
<path d="M4636 1864 c-8 -31 3 -114 15 -114 7 0 2 130 -6 138 -1 2 -6 -9 -9
-24z"/>
<path d="M4662 1860 c0 -14 2 -19 5 -12 2 6 2 18 0 25 -3 6 -5 1 -5 -13z"/>
<path d="M4722 1790 c0 -14 2 -19 5 -12 2 6 2 18 0 25 -3 6 -5 1 -5 -13z"/>
<path d="M4661 1793 c0 -5 4 -17 9 -28 8 -18 9 -17 9 8 1 15 -3 27 -9 27 -5 0
-10 -3 -9 -7z"/>
<path d="M3800 4460 c0 -5 5 -10 11 -10 5 0 7 5 4 10 -3 6 -8 10 -11 10 -2 0
-4 -4 -4 -10z"/>
<path d="M3772 4410 c-15 -32 -13 -66 3 -63 8 2 19 93 12 93 -1 0 -8 -13 -15
-30z"/>
<path d="M4731 4381 c-6 -10 -13 -36 -15 -56 -3 -20 -12 -45 -21 -55 -17 -19
-13 -40 7 -40 6 0 26 14 45 30 18 17 38 30 43 30 6 0 10 4 10 9 0 6 -12 9 -27
8 -27 -2 -28 -1 -26 46 3 51 -1 57 -16 28z m9 -101 c0 -5 -4 -10 -10 -10 -5 0
-10 5 -10 10 0 6 5 10 10 10 6 0 10 -4 10 -10z"/>
<path d="M4672 4348 c-16 -63 -15 -81 4 -38 8 19 14 46 12 60 -3 20 -6 15 -16
-22z"/>
<path d="M4775 4340 c-3 -5 -1 -10 4 -10 6 0 11 5 11 10 0 6 -2 10 -4 10 -3 0
-8 -4 -11 -10z"/>
<path d="M4173 4274 c-50 -25 -157 -128 -208 -200 -51 -73 -88 -156 -116 -256
-32 -116 -19 -117 19 -2 26 79 94 216 137 274 35 47 113 125 175 173 40 31 38
33 -7 11z"/>
<path d="M4502 4238 c-9 -17 -25 -39 -34 -50 -10 -10 -18 -23 -18 -28 0 -6 -5
-19 -12 -30 -7 -10 -9 -23 -5 -27 11 -10 27 17 27 45 0 13 4 21 9 18 12 -8 24
10 43 62 19 50 14 55 -10 10z"/>
<path d="M4421 4231 c-12 -16 -21 -33 -21 -38 0 -5 -15 -27 -33 -49 -18 -21
-55 -69 -81 -107 -48 -67 -102 -115 -76 -67 16 31 6 36 -13 7 -9 -14 -13 -34
-10 -46 5 -20 6 -20 42 9 20 17 39 34 44 38 4 4 31 43 60 87 29 44 69 103 90
131 20 28 37 54 37 58 0 15 -20 3 -39 -23z"/>
<path d="M4818 4211 c-7 -10 -17 -19 -23 -20 -9 -1 -10 -6 -6 -31 2 -16 21
-11 28 8 3 9 15 27 26 40 17 19 18 22 4 22 -9 0 -22 -8 -29 -19z"/>
<path d="M3858 4200 c-4 -14 -7 -47 -7 -75 1 -49 1 -49 10 -17 6 19 9 53 7 75
-3 36 -4 39 -10 17z"/>
<path d="M3974 4158 c-45 -48 -84 -101 -101 -138 -23 -49 -62 -186 -68 -235
-5 -45 -3 -43 19 30 55 179 105 282 175 358 13 15 23 27 20 27 -3 0 -23 -19
-45 -42z"/>
<path d="M4711 4132 c-7 -13 -11 -26 -8 -28 8 -8 29 25 25 38 -3 8 -9 4 -17
-10z"/>
<path d="M5004 4105 c3 -18 0 -25 -11 -25 -10 0 -13 -6 -9 -16 3 -9 6 -23 6
-32 0 -15 2 -15 10 -2 11 17 25 6 34 -25 3 -12 4 -9 2 7 -2 15 2 29 8 31 19 7
13 61 -9 74 -30 18 -36 16 -31 -12z"/>
<path d="M4185 4109 c-4 -6 -5 -12 -2 -15 2 -3 7 2 10 11 7 17 1 20 -8 4z"/>
<path d="M4685 4070 c-3 -5 -1 -10 4 -10 6 0 11 5 11 10 0 6 -2 10 -4 10 -3 0
-8 -4 -11 -10z"/>
<path d="M4119 4007 c-39 -65 -70 -142 -151 -382 -23 -66 -45 -127 -49 -137
-5 -9 -13 -47 -20 -85 -6 -37 -15 -75 -19 -83 -14 -28 -22 -113 -11 -105 6 3
11 18 11 33 0 24 13 75 79 295 50 170 133 382 192 490 20 36 -7 15 -32 -26z"/>
<path d="M4156 3974 c-16 -35 -15 -58 3 -38 13 14 31 74 22 74 -4 0 -15 -16
-25 -36z"/>
<path d="M4551 3994 c0 -11 3 -14 6 -6 3 7 2 16 -1 19 -3 4 -6 -2 -5 -13z"/>
<path d="M5120 3975 c0 -5 11 -23 25 -40 13 -16 24 -25 24 -20 0 6 -11 24 -24
40 -14 17 -25 26 -25 20z"/>
<path d="M4103 3834 c-26 -79 -19 -77 13 3 27 66 26 63 16 63 -4 0 -18 -30
-29 -66z"/>
<path d="M4189 3873 c-4 -57 -3 -110 3 -107 10 7 28 -31 28 -60 0 -14 -9 -40
-20 -58 -22 -36 -26 -53 -10 -43 15 10 50 86 50 111 0 12 -7 41 -15 64 -8 23
-15 53 -15 66 0 21 -19 46 -21 27z"/>
<path d="M4330 3869 c1 -8 7 -27 15 -44 l13 -30 1 31 c1 17 -6 37 -14 44 -12
10 -15 10 -15 -1z"/>
<path d="M4041 3650 c-8 -25 -19 -50 -24 -57 -5 -7 -6 -17 -2 -24 9 -13 47 88
43 111 -2 8 -10 -5 -17 -30z"/>
<path d="M4155 3639 c-4 -6 -5 -12 -2 -15 2 -3 7 2 10 11 7 17 1 20 -8 4z"/>
<path d="M4075 3629 c-4 -6 -5 -12 -2 -15 2 -3 7 2 10 11 7 17 1 20 -8 4z"/>
<path d="M4140 3584 c0 -8 5 -12 10 -9 6 3 10 10 10 16 0 5 -4 9 -10 9 -5 0
-10 -7 -10 -16z"/>
<path d="M4071 3564 c0 -11 3 -14 6 -6 3 7 2 16 -1 19 -3 4 -6 -2 -5 -13z"/>
<path d="M4003 3533 c-3 -10 -8 -21 -10 -25 -2 -5 0 -8 5 -8 5 0 12 11 14 25
6 29 0 33 -9 8z"/>
<path d="M4150 3240 c0 -5 5 -10 10 -10 6 0 10 5 10 10 0 6 -4 10 -10 10 -5 0
-10 -4 -10 -10z"/>
<path d="M3912 3150 c0 -14 2 -19 5 -12 2 6 2 18 0 25 -3 6 -5 1 -5 -13z"/>
<path d="M3891 3034 c0 -11 3 -14 6 -6 3 7 2 16 -1 19 -3 4 -6 -2 -5 -13z"/>
<path d="M4630 2997 c0 -26 5 -47 11 -47 6 0 8 16 6 40 -6 58 -17 62 -17 7z"/>
<path d="M4895 2870 c3 -74 12 -178 20 -230 8 -52 12 -96 10 -99 -3 -2 -5 2
-5 10 0 8 -8 21 -17 30 -10 8 -26 26 -35 39 -14 21 -17 22 -17 7 -1 -31 21
-107 31 -107 5 0 6 -5 2 -11 -3 -6 -1 -15 6 -19 9 -6 8 -13 -5 -33 -13 -20
-14 -33 -6 -64 5 -21 15 -65 21 -98 14 -69 29 -113 41 -121 5 -3 6 1 3 9 -3 8
-1 18 5 21 6 4 15 -12 22 -41 7 -26 14 -42 17 -35 5 17 -20 102 -31 102 -5 0
-6 9 -2 19 3 11 1 22 -5 26 -7 4 -6 13 1 28 7 11 11 46 10 77 -1 30 -2 88 -3
128 -1 39 -5 72 -9 72 -4 0 -7 28 -8 61 0 34 -5 67 -10 73 -5 6 -13 65 -17
131 -10 171 -26 191 -19 25z"/>
<path d="M4336 2977 c3 -10 9 -15 12 -12 3 3 0 11 -7 18 -10 9 -11 8 -5 -6z"/>
<path d="M4681 2899 c8 -16 14 -18 22 -10 9 9 8 14 -3 21 -24 16 -31 11 -19
-11z"/>
<path d="M4686 2863 c-11 -11 -6 -23 9 -23 8 0 15 4 15 9 0 13 -16 22 -24 14z"/>
<path d="M4176 2794 c-9 -8 -16 -20 -16 -27 0 -6 7 -2 15 9 11 14 14 15 14 4
-1 -20 -17 -59 -18 -42 -1 9 -7 8 -25 -5 -12 -10 -23 -24 -22 -33 1 -8 -5 -15
-11 -16 -7 -1 -16 -2 -20 -3 -4 0 2 -8 13 -16 10 -8 15 -15 10 -15 -5 0 -2 -8
5 -17 12 -14 12 -16 -1 -9 -8 4 -6 0 4 -8 18 -14 21 -14 36 2 10 9 16 19 14
22 -1 3 1 12 6 20 13 22 29 2 40 -51 8 -39 9 -37 5 26 -6 95 -16 164 -26 170
-4 3 -15 -2 -23 -11z"/>
<path d="M4320 2738 c0 -4 9 -8 21 -8 15 0 19 -5 15 -16 -3 -8 -2 -12 3 -9 6
3 9 14 8 25 -1 14 -8 19 -24 18 -13 -2 -23 -6 -23 -10z"/>
<path d="M4320 2700 c0 -5 5 -10 11 -10 5 0 7 5 4 10 -3 6 -8 10 -11 10 -2 0
-4 -4 -4 -10z"/>
<path d="M4156 2602 c-3 -5 -16 -8 -29 -7 -20 2 -23 -1 -22 -26 2 -33 24 -63
32 -41 3 6 10 12 16 12 8 0 8 -3 0 -11 -8 -8 -8 -18 -1 -35 18 -40 26 -27 27
41 0 59 -10 88 -23 67z m-29 -27 c0 -8 -4 -12 -9 -9 -5 3 -6 10 -3 15 9 13 12
11 12 -6z"/>
<path d="M4685 2600 c-4 -6 -2 -17 4 -23 15 -15 25 -2 13 19 -7 12 -11 13 -17
4z"/>
<path d="M4041 1782 c-7 -23 -9 -47 -6 -53 4 -5 2 -15 -4 -22 -11 -14 -45
-156 -39 -163 3 -2 11 15 18 38 7 24 17 52 22 64 5 11 11 38 12 60 2 21 6 51
10 66 5 15 6 33 3 40 -2 7 -10 -6 -16 -30z"/>
<path d="M3991 1714 c0 -11 3 -14 6 -6 3 7 2 16 -1 19 -3 4 -6 -2 -5 -13z"/>
<path d="M5151 1285 c0 -5 6 -21 14 -35 8 -14 14 -20 14 -15 0 6 -6 21 -14 35
-8 14 -14 21 -14 15z"/>
<path d="M4980 1195 c7 -9 15 -13 17 -11 7 7 -7 26 -19 26 -6 0 -6 -6 2 -15z"/>
<path d="M4546 1065 c-28 -17 -54 -24 -88 -23 -56 0 -64 -4 -50 -27 8 -15 10
-15 15 -2 7 18 72 16 90 -2 11 -11 14 -252 2 -270 -7 -12 -26 -15 -24 -3 4 26
-1 34 -16 22 -10 -9 -15 -9 -15 -1 0 6 -10 9 -22 7 -13 -3 -26 -5 -30 -5 -37
-4 52 -48 107 -53 l29 -3 1 125 c1 86 5 124 12 123 7 -1 14 10 18 25 l5 27
123 -7 c241 -13 297 -19 297 -34 0 -17 -28 -32 -60 -33 -48 -1 -56 -5 -58 -29
-1 -14 -7 -31 -13 -38 -6 -7 -9 -40 -7 -73 1 -33 0 -61 -2 -63 -30 -19 -52
-27 -65 -22 -10 4 -15 0 -14 -12 0 -11 3 -14 5 -7 4 8 14 8 39 -3 19 -8 47
-14 62 -14 l28 0 -2 100 c-3 95 -2 100 18 100 11 0 41 14 65 32 l44 31 25 -23
c19 -17 25 -20 25 -8 0 8 -11 21 -25 28 -14 8 -24 18 -22 24 4 13 117 17 133
4 6 -4 22 -8 35 -8 13 1 76 -2 140 -6 80 -4 119 -2 123 5 4 6 5 11 3 11 -2 0
-29 5 -58 11 -80 16 -99 17 -93 8 3 -5 0 -9 -5 -9 -6 0 -11 7 -11 15 0 8 -5
15 -11 15 -5 0 -7 -5 -3 -11 5 -8 -5 -10 -32 -5 -48 7 -141 16 -173 16 -16 0
-21 4 -17 15 4 10 -1 15 -17 15 -12 0 -53 4 -92 9 -153 22 -338 40 -347 35 -5
-3 -14 -1 -21 4 -9 7 -24 3 -51 -13z m425 -53 c-7 -2 -18 1 -23 6 -8 8 -4 9
13 5 13 -4 18 -8 10 -11z m-61 -102 c0 -5 -5 -10 -11 -10 -5 0 -7 5 -4 10 3 6
8 10 11 10 2 0 4 -4 4 -10z m40 -2 c0 -4 -7 -8 -15 -8 -8 0 -15 4 -15 8 0 5 7
9 15 9 8 0 15 -4 15 -9z"/>
<path d="M4237 1074 c-1 -1 -25 -5 -52 -8 -28 -3 -63 -9 -80 -11 -16 -3 -51
-7 -78 -9 -26 -2 -50 -6 -54 -9 -3 -4 -13 -1 -21 6 -11 8 -13 8 -9 0 5 -8 -9
-13 -45 -16 -29 -3 -152 -19 -273 -36 -121 -17 -233 -32 -250 -33 l-29 -1 32
-15 c18 -9 32 -22 32 -29 0 -11 10 -13 48 -7 26 3 54 10 63 15 9 5 19 6 22 3
9 -9 106 16 114 29 3 6 1 7 -5 3 -7 -4 -12 -2 -12 3 0 15 13 14 28 -1 10 -10
15 -10 21 1 5 8 14 10 21 6 8 -5 11 -4 7 2 -9 15 85 16 96 1 6 -9 7 -8 3 5 -3
10 0 17 7 18 7 0 33 4 59 8 26 4 45 4 42 -1 -3 -4 -15 -8 -28 -8 -12 0 -31 -7
-42 -16 -10 -8 -14 -13 -8 -10 25 12 97 21 254 31 87 6 131 12 163 21 11 4 17
0 17 -10 0 -20 9 -20 24 -1 6 8 23 16 38 19 36 6 50 15 43 27 -6 9 7 13 32 10
6 -1 14 2 16 6 4 7 -189 13 -196 7z"/>
<path d="M4497 1069 c7 -7 15 -10 18 -7 3 3 -2 9 -12 12 -14 6 -15 5 -6 -5z"/>
<path d="M5090 1026 c0 -2 9 -6 20 -9 11 -3 18 -1 14 4 -5 9 -34 13 -34 5z"/>
<path d="M5265 1000 c-3 -5 -1 -10 4 -10 6 0 11 5 11 10 0 6 -2 10 -4 10 -3 0
-8 -4 -11 -10z"/>
<path d="M3290 940 c0 -5 7 -10 16 -10 8 0 12 5 9 10 -3 6 -10 10 -16 10 -5 0
-9 -4 -9 -10z"/>
<path d="M4730 939 c0 -5 11 -9 25 -9 14 0 25 2 25 4 0 2 -11 6 -25 8 -14 3
-25 1 -25 -3z"/>
<path d="M3370 920 c-8 -5 -12 -12 -9 -15 4 -3 12 1 19 10 14 17 11 19 -10 5z"/>
<path d="M3800 914 c1 -12 75 -64 92 -64 7 0 2 9 -12 20 l-25 19 25 10 25 10
-30 1 c-16 0 -40 3 -52 6 -13 4 -23 2 -23 -2z"/>
<path d="M5027 888 c-4 -15 -25 -39 -47 -55 -31 -22 -39 -33 -34 -48 14 -48
16 -77 4 -105 -15 -36 -13 -36 -140 -25 -64 5 -82 4 -74 -5 6 -6 45 -13 86
-14 90 -4 100 -9 88 -40 -8 -21 -5 -24 22 -30 16 -3 33 -4 38 -1 4 2 3 28 -1
56 -5 29 -5 57 -1 63 4 6 7 24 7 40 0 16 6 31 13 33 8 3 12 -8 12 -35 0 -42
26 -77 51 -67 10 4 13 18 11 50 -3 28 0 45 7 45 6 0 12 -12 12 -27 1 -16 2
-37 3 -48 1 -13 9 -21 23 -23 20 -3 22 1 25 55 3 57 2 59 -44 104 -30 29 -48
56 -50 75 l-3 29 -8 -27z m28 -79 l40 -41 -40 7 c-22 3 -55 8 -74 11 -31 5
-32 6 -15 19 11 8 30 15 44 15 14 1 19 4 13 7 -11 4 -19 23 -10 23 2 0 21 -18
42 -41z"/>
<path d="M4562 881 c2 -7 7 -12 11 -12 12 1 9 15 -3 20 -7 2 -11 -2 -8 -8z"/>
<path d="M5112 868 c5 -15 48 -24 48 -10 0 10 -23 22 -42 22 -5 0 -8 -6 -6
-12z"/>
<path d="M3790 861 c0 -5 5 -13 10 -16 6 -3 10 -2 10 4 0 5 -4 13 -10 16 -5 3
-10 2 -10 -4z"/>
<path d="M3919 856 c7 -8 10 -52 9 -107 -1 -77 1 -94 13 -93 44 4 147 30 164
41 17 12 9 13 -61 8 l-81 -5 1 59 c1 33 4 57 9 54 4 -2 7 0 7 6 0 5 8 12 18
14 11 3 7 5 -10 6 -15 0 -29 5 -32 10 -3 5 -15 11 -26 14 -16 4 -19 3 -11 -7z"/>
<path d="M5179 840 c-6 -31 -6 -100 0 -100 12 0 19 78 9 93 -4 7 -8 10 -9 7z"/>
<path d="M3746 791 c-37 -37 -39 -44 -40 -101 -1 -59 0 -61 24 -58 17 2 25 10
26 23 1 11 3 31 4 45 l1 25 10 -24 c5 -14 8 -30 5 -36 -2 -7 0 -18 5 -26 8
-11 13 -10 26 9 8 12 24 22 35 22 19 0 20 -5 16 -65 -4 -66 -4 -66 21 -63 23
3 26 7 23 34 -4 36 11 43 112 50 33 2 65 9 70 15 8 8 -8 9 -59 4 -131 -14
-135 -14 -135 0 0 8 -8 19 -19 24 -19 11 -34 58 -20 66 4 3 12 -3 18 -12 8
-15 10 -11 11 20 0 35 -8 46 -24 30 -14 -14 -84 -30 -97 -22 -10 6 -9 12 5 28
11 12 26 21 33 21 16 0 13 22 -3 27 -5 2 -27 -15 -48 -36z"/>
<path d="M3830 816 c0 -2 8 -10 18 -17 15 -13 16 -12 3 4 -13 16 -21 21 -21
13z"/>
<path d="M4143 793 c-13 -2 -23 -8 -23 -13 0 -6 10 -6 24 0 13 5 27 6 30 3 3
-4 6 -1 6 5 0 7 -3 11 -7 11 -5 -1 -18 -4 -30 -6z"/>
<path d="M4190 796 c0 -9 39 -13 51 -5 10 6 4 9 -18 9 -18 0 -33 -2 -33 -4z"/>
<path d="M4330 785 c0 -17 16 -20 25 -4 4 6 14 8 22 5 8 -3 11 -1 8 4 -10 16
-55 12 -55 -5z"/>
<path d="M4330 738 c0 -19 -1 -20 -25 -4 -17 11 -24 13 -23 4 4 -15 -22 -18
-40 -4 -9 6 -16 6 -20 0 -4 -6 -15 -15 -26 -21 -16 -9 -17 -11 -2 -16 11 -4
15 -3 11 3 -4 7 11 9 44 5 35 -4 51 -2 51 6 0 6 6 9 13 6 14 -5 83 20 76 28
-3 2 -17 6 -32 9 -22 4 -27 1 -27 -16z"/>
<path d="M3625 724 l-30 -13 33 1 c33 2 50 12 35 21 -5 2 -21 -2 -38 -9z"/>
<path d="M4613 724 c-3 -8 -1 -20 6 -27 8 -8 11 -4 11 16 0 30 -7 35 -17 11z"/>
<path d="M4671 726 c-7 -8 2 -12 30 -12 21 -1 39 2 39 6 0 13 -60 17 -69 6z"/>
<path d="M5177 691 c-8 -40 -1 -57 19 -40 9 7 11 16 5 23 -5 6 -11 20 -13 31
-3 15 -6 11 -11 -14z"/>
<path d="M3486 702 c-2 -4 4 -8 14 -9 11 -1 22 2 25 8 4 5 -3 9 -14 9 -11 0
-22 -4 -25 -8z"/>
<path d="M3400 689 c0 -5 5 -7 10 -4 6 3 10 8 10 11 0 2 -4 4 -10 4 -5 0 -10
-5 -10 -11z"/>
<path d="M4157 693 c-4 -3 -7 -26 -7 -49 0 -24 -5 -46 -12 -50 -8 -5 -6 -10 8
-14 34 -12 52 -1 50 33 l-1 32 74 10 c45 6 76 15 79 23 3 10 -4 12 -34 5 -62
-13 -149 -10 -146 5 2 13 -1 15 -11 5z"/>
<path d="M4650 684 c0 -15 -10 -16 -81 -9 -45 3 -88 9 -95 12 -10 4 -14 -3
-14 -23 0 -19 3 -25 9 -16 5 9 29 12 82 10 l74 -3 -1 -32 c-2 -30 1 -33 27
-33 26 0 29 3 29 33 0 41 -10 77 -21 77 -5 0 -9 -7 -9 -16z"/>
<path d="M3650 674 c0 -17 -68 -31 -128 -28 -43 2 -54 -1 -62 -17 -11 -20 3
-28 15 -9 4 7 13 7 26 0 11 -6 18 -7 17 -1 -3 10 0 11 38 11 25 0 26 -1 22
-59 -1 -33 0 -62 3 -65 3 -3 20 -1 37 5 28 10 30 13 17 26 -21 21 -19 36 5 30
11 -3 20 -2 20 3 0 4 28 10 62 14 58 6 89 18 76 31 -2 3 -29 1 -58 -5 -83 -16
-140 -13 -140 6 0 12 7 15 31 12 35 -5 47 10 30 39 -6 10 -11 13 -11 7z"/>
<path d="M5240 671 c0 -40 -57 -54 -162 -40 -34 4 -48 2 -48 -6 0 -8 23 -13
65 -14 36 -1 77 -6 91 -11 21 -8 23 -13 14 -29 -15 -29 -13 -31 24 -31 l34 0
-5 68 c-5 58 -13 99 -13 63z"/>
<path d="M3405 627 c-17 -13 -17 -14 4 -20 23 -6 39 9 24 24 -5 5 -16 4 -28
-4z"/>
<path d="M4393 623 c-29 -11 -9 -18 47 -19 47 0 57 2 43 10 -20 11 -71 16 -90
9z"/>
<path d="M4737 604 c-10 -11 3 -24 23 -24 10 0 21 -8 23 -17 4 -16 5 -16 6 1
1 26 -37 55 -52 40z"/>
<path d="M5325 599 c11 -4 47 -8 81 -8 33 -1 68 -7 78 -14 17 -13 17 -14 1
-30 -15 -16 -15 -18 9 -28 41 -19 56 -7 45 38 -5 21 -9 40 -9 43 0 3 -51 6
-113 6 -64 1 -103 -2 -92 -7z"/>
<path d="M4235 591 c-3 -5 -2 -12 3 -15 5 -3 9 1 9 9 0 17 -3 19 -12 6z"/>
<path d="M4077 558 c-14 -29 -16 -30 -16 -10 -1 13 -5 20 -11 17 -7 -4 -7 -13
0 -26 6 -11 8 -25 4 -32 -5 -8 -2 -7 9 2 14 11 17 11 17 0 1 -11 2 -11 9 1 14
24 23 80 14 80 -5 0 -17 -15 -26 -32z"/>
<path d="M5600 580 c0 -5 5 -10 11 -10 5 0 7 5 4 10 -3 6 -8 10 -11 10 -2 0
-4 -4 -4 -10z"/>
<path d="M3459 576 c-2 -2 -35 -6 -73 -9 -37 -3 -70 -7 -71 -9 -2 -2 -6 -23
-10 -47 -7 -43 -7 -44 16 -37 30 9 51 14 64 16 6 1 0 5 -12 10 -13 5 -23 16
-23 24 0 14 17 20 100 31 58 7 88 25 44 25 -17 0 -33 -2 -35 -4z"/>
<path d="M5736 571 c-18 -7 -18 -8 -3 -14 22 -8 22 -33 1 -45 -13 -7 -10 -10
16 -15 40 -9 53 -1 40 23 -5 10 -10 28 -10 39 0 22 -12 25 -44 12z"/>
<path d="M3151 535 c-41 -7 -82 -10 -90 -8 -13 3 -17 -5 -17 -42 -2 -44 0 -46
25 -43 23 3 26 7 23 34 -3 36 2 39 81 49 32 4 57 11 57 16 0 5 -1 8 -2 8 -2
-1 -36 -7 -77 -14z"/>
<path d="M3805 536 c-19 -8 -25 -15 -18 -19 13 -8 53 12 53 25 0 10 2 10 -35
-6z"/>
<path d="M5333 525 c12 -13 24 -19 26 -14 1 6 -5 17 -15 24 -29 22 -35 17 -11
-10z"/>
<path d="M5575 520 c3 -5 16 -10 28 -9 21 0 21 1 2 9 -28 12 -37 12 -30 0z"/>
<path d="M3817 514 c-4 -4 -7 -17 -7 -28 1 -19 1 -20 11 -3 11 19 8 43 -4 31z"/>
<path d="M4389 414 c-1 -5 0 -26 1 -46 1 -37 1 -38 -34 -38 -36 0 -47 12 -23
27 6 4 19 6 28 5 9 -2 16 4 16 12 0 11 -8 13 -27 9 -17 -3 -32 1 -43 11 -18
19 -54 21 -94 5 -15 -5 -55 -10 -89 -10 -34 0 -84 -6 -111 -13 -26 -7 -86 -14
-133 -15 -46 -1 -90 -7 -97 -13 -11 -9 -32 -12 -101 -17 -13 0 -21 -4 -19 -8
3 -5 45 -7 94 -7 118 2 125 3 119 13 -3 5 12 11 34 13 22 2 40 0 40 -4 0 -5
-11 -8 -24 -8 -14 0 -27 -3 -29 -7 -3 -5 60 -7 140 -6 100 1 148 5 153 13 5 8
9 9 11 2 4 -11 132 -16 309 -12 72 2 86 4 57 10 -66 13 -51 19 39 16 102 -4
106 -5 79 -16 -11 -4 99 -8 255 -8 151 0 284 4 295 9 14 6 4 8 -33 6 -28 -1
-52 0 -52 3 0 5 -46 7 -237 11 -48 2 -81 7 -80 12 3 16 -46 25 -68 12 -23 -14
-103 -12 -132 3 -11 6 -30 8 -41 5 -12 -3 -29 1 -38 8 -9 7 -39 14 -67 15 -29
1 -62 5 -74 9 -13 4 -23 3 -24 -1z m-369 -64 c0 -5 -8 -10 -17 -10 -15 0 -16
2 -3 10 19 12 20 12 20 0z m440 6 c0 -3 -4 -8 -10 -11 -5 -3 -10 -1 -10 4 0 6
5 11 10 11 6 0 10 -2 10 -4z m-220 -18 c0 -4 -7 -8 -15 -8 -8 0 -15 4 -15 8 0
5 7 9 15 9 8 0 15 -4 15 -9z"/>
<path d="M5365 330 c-8 -13 5 -13 25 0 13 8 13 10 -2 10 -9 0 -20 -4 -23 -10z"/>
<path d="M3560 320 c0 -6 7 -10 15 -10 8 0 15 2 15 4 0 2 -7 6 -15 10 -8 3
-15 1 -15 -4z"/>
<path d="M3614 318 c-3 -4 2 -8 10 -8 8 0 17 4 20 8 3 5 -2 9 -10 9 -8 0 -17
-4 -20 -9z"/>
<path d="M4628 323 c7 -3 16 -2 19 1 4 3 -2 6 -13 5 -11 0 -14 -3 -6 -6z"/>
</g>
</svg>
