<?xml version="1.0" encoding="utf-8"?>
<!-- Generator: Adobe Illustrator 24.1.3, SVG Export Plug-In . SVG Version: 6.00 Build 0)  -->
<svg version="1.1" id="Layer_1" xmlns="http://www.w3.org/2000/svg" xmlns:xlink="http://www.w3.org/1999/xlink" x="0px" y="0px"
	 viewBox="0 0 60 69.3" style="enable-background:new 0 0 60 69.3;" xml:space="preserve">
<style type="text/css">
	.st0{fill:#FFFFFF;}
	.st1{fill:none;}
	.st2{fill:url(#Path_12117_1_);}
	.st3{fill:url(#Path_12116_1_);}
	.st4{opacity:0.21;fill:url(#Path_12135_1_);enable-background:new    ;}
	.st5{fill-rule:evenodd;clip-rule:evenodd;fill:#F6A232;}
	.st6{fill:url(#Subtraction_2_1_);}
</style>
<g id="Group_95794" transform="translate(-143 -236.333)">
	<g transform="matrix(1, 0, 0, 1, 143, 236.33)">
		<path id="Path_12118-2" class="st0" d="M30,6L9,15.3v14c0,13,9,25.1,21,28c12-2.9,21-15,21-28v-14L30,6z"/>
	</g>
	<g id="Group_95762" transform="translate(145 240)">
		<path id="Path_12115" class="st1" d="M0,0h56v56H0V0z"/>
		
			<linearGradient id="Path_12117_1_" gradientUnits="userSpaceOnUse" x1="-886.2619" y1="562.5148" x2="-886.2619" y2="561.5148" gradientTransform="matrix(21 0 0 -51.333 18649.7715 28877.8984)">
			<stop  offset="0" style="stop-color:#6780EF"/>
			<stop  offset="1" style="stop-color:#B5C2FF"/>
		</linearGradient>
		<path id="Path_12117" class="st2" d="M27.8,53.7c12-2.9,21-15.1,21-28v-14l-21-9.3"/>
		
			<linearGradient id="Path_12116_1_" gradientUnits="userSpaceOnUse" x1="-908.381" y1="562.5148" x2="-908.381" y2="561.5148" gradientTransform="matrix(42 0 0 -51.333 38179.7695 28877.9023)">
			<stop  offset="0" style="stop-color:#1481FF"/>
			<stop  offset="1" style="stop-color:#6EB1FE"/>
		</linearGradient>
		<path id="Path_12116" class="st3" d="M27.8,4.9l18.7,8.3v12.5c0,11.8-8,22.7-18.7,25.6C17.1,48.4,9.1,37.5,9.1,25.7V13.2L27.8,4.9
			 M27.8,2.3l-21,9.3v14c0,12.9,9,25.1,21,28c12-2.9,21-15.1,21-28v-14L27.8,2.3L27.8,2.3z"/>
	</g>
	
		<linearGradient id="Path_12135_1_" gradientUnits="userSpaceOnUse" x1="-695.8104" y1="791.3199" x2="-695.2708" y2="790.6143" gradientTransform="matrix(10.333 0 0 -24.167 7371.4609 19370.3184)">
		<stop  offset="0" style="stop-color:#FFFFFF"/>
		<stop  offset="1" style="stop-color:#FFFFFF;stop-opacity:0.251"/>
	</linearGradient>
	<path id="Path_12135" class="st4" d="M184,247.3l5.1,10.4l-4.5,9.2l-5.2-21.6L184,247.3z"/>
	<g id="Group_95845" transform="translate(-8 4)">
		<path id="Sun" class="st5" d="M195.7,264.2l-2.7,0.7c0,0,0,0.1,0.1,0.1l-3.4,1.3c-0.1-0.5-0.3-1-0.5-1.5c-2-4.4-7.1-6.3-11.5-4.4
			c-2.3,1-4.1,3-4.8,5.5l-3.4-1.2c0,0,0-0.1,0-0.1l-2.4-0.7c-0.7-0.1-1.1-0.8-1-1.5c0,0,0,0,0,0l0,0l0.1-0.6c0.2-0.7,0.8-1.1,1.5-1
			l3.2,0.9c0.7-1,1.6-1.9,2.6-2.7l-2.1-2.4c-0.4-0.5-0.3-1.3,0.2-1.8c0,0,0,0,0,0l0,0l0.5-0.4c0.6-0.4,1.4-0.3,1.8,0.2l2.4,2.8
			c1.2-0.5,2.4-0.8,3.7-0.9l0-3.2c0-0.7,0.6-1.3,1.3-1.3c0,0,0,0,0,0h0.6c0.7,0,1.3,0.6,1.3,1.3l0,3.4c1.1,0.2,2.2,0.5,3.2,1
			l2.6-3.4c0.4-0.6,1.2-0.6,1.8-0.2l0.5,0.4c0.5,0.4,0.7,1.2,0.2,1.8c0,0,0,0,0,0l0,0l-2.4,3.2c0.9,0.8,1.7,1.6,2.3,2.6l3.4-0.9
			c0.7-0.2,1.4,0.2,1.6,0.9l0.2,0.6C196.8,263.4,196.4,264,195.7,264.2C195.7,264.2,195.7,264.2,195.7,264.2L195.7,264.2z"/>
		
			<linearGradient id="Subtraction_2_1_" gradientUnits="userSpaceOnUse" x1="-719.228" y1="772.1634" x2="-720.708" y2="773.1584" gradientTransform="matrix(16.1369 0 0 -14.3198 11805.9785 11323.1875)">
			<stop  offset="0" style="stop-color:#FFFFFF"/>
			<stop  offset="1" style="stop-color:#FFFFFF;stop-opacity:0"/>
		</linearGradient>
		<path id="Subtraction_2" class="st6" d="M189.6,266.3L189.6,266.3c-0.1-0.5-0.3-1-0.5-1.5c-1.4-3.1-4.5-5.1-8-5.1
			c-0.2,0-0.4,0-0.6,0v-7.4c0.2-0.2,0.5-0.3,0.8-0.3h0.7c0.7,0,1.3,0.6,1.3,1.3l0,3.4c1.1,0.2,2.2,0.5,3.2,1l2.6-3.4
			c0.2-0.3,0.6-0.5,1-0.5c0.3,0,0.6,0.1,0.8,0.3l0.5,0.4c0.3,0.2,0.4,0.5,0.5,0.8c0,0.3-0.1,0.7-0.3,0.9l0,0l-2.4,3.2
			c0.9,0.8,1.7,1.6,2.3,2.6l3.4-0.9c0.1,0,0.2,0,0.3,0c0.6,0,1.1,0.4,1.2,1l0.2,0.6c0.1,0.3,0,0.7-0.2,1c-0.2,0.3-0.5,0.5-0.8,0.6h0
			l-2.7,0.7c0,0,0,0,0,0.1v0c0,0,0,0,0,0.1L189.6,266.3L189.6,266.3z"/>
	</g>
</g>
</svg>
